<svg version="1.1" viewBox="0 0 150 34" xmlns="http://www.w3.org/2000/svg">
    <title>studio418</title>
    <g fill="none" fill-rule="evenodd">
        <g id="brand-logo-color" transform="translate(-121 -38)" fill="#FE2E24">
            <g transform="translate(0 -1)">
                <g transform="translate(.19355 .64516)">
                    <g transform="translate(.80645 .35484)">
                        <g transform="translate(120 38)">
                            <g transform="translate(99.194 5)">
                                <path d="m20.409 23.015h-3.6816-0.0063095l1.326-3.292h2.3619v-3.4859c0-0.30315 0.07814-0.587 0.21476-0.83074 0.13662-0.24399 0.33149-0.44761 0.56445-0.59055s0.50427-0.22469 0.79402-0.22469c0.28975 0 0.56106 0.081753 0.79402 0.22469 0.23321 0.14294 0.42783 0.34656 0.56445 0.59055 0.13662 0.24374 0.21476 0.52759 0.21476 0.83074v3.4859h2.9824c0.28951 0 0.56081 0.082007 0.79378 0.22469 0.23321 0.14294 0.42807 0.34682 0.5647 0.59055 0.13638 0.24399 0.21452 0.52784 0.21452 0.83074s-0.07814 0.587-0.21452 0.83074c-0.13662 0.24399-0.33149 0.44761-0.5647 0.59055-0.23296 0.14269-0.50427 0.22469-0.79378 0.22469h-2.9824v3.4859c0 0.30315-0.07814 0.587-0.21476 0.83074-0.13662 0.24399-0.33125 0.44787-0.56445 0.59055-0.23296 0.14294-0.50427 0.22469-0.79402 0.22469-0.28975 0-0.56106-0.081753-0.79402-0.22469-0.23296-0.14269-0.42783-0.34656-0.56445-0.59055-0.13662-0.24374-0.21476-0.52759-0.21476-0.83074v-3.4859z"/>
                                <path d="m31.871 23.073c-0.29339 0-0.56809-0.087085-0.80397-0.23917-0.23612-0.15208-0.43341-0.36891-0.57173-0.62838-0.13808-0.25948-0.21719-0.56161-0.21719-0.88405v-14.823c0-0.32244 0.079111-0.62457 0.21719-0.88405 0.13832-0.25948 0.33561-0.4763 0.57173-0.62838 0.23588-0.15183 0.51058-0.23917 0.80397-0.23917 0.29315 0 0.56809 0.087339 0.80397 0.23917 0.23612 0.15208 0.43341 0.36891 0.57149 0.62838 0.13832 0.25948 0.21743 0.56161 0.21743 0.88405v14.823c0 0.32244-0.079111 0.62457-0.21743 0.88405-0.13808 0.25948-0.33537 0.4763-0.57149 0.62838-0.23588 0.15208-0.51082 0.23917-0.80397 0.23917"/>
                                <path d="m11.492 22.414c-0.16429-0.24577-0.26961-0.53546-0.30504-0.83937-0.035187-0.30391-4.854e-4 -0.62204 0.11478-0.92442l7.3995-19.386c0.11551-0.30239 0.29703-0.55095 0.5181-0.73375 0.22107-0.18306 0.4817-0.3001 0.75495-0.3392 0.27325-0.039353 0.55936-7.6168e-4 0.83115 0.12771 0.27203 0.12822 0.49553 0.33031 0.66006 0.57608 0.16453 0.24577 0.26961 0.53571 0.30504 0.83962 0.035187 0.30391 7.28e-4 0.62178-0.11478 0.92417l-7.3995 19.386c-0.11551 0.30239-0.29703 0.5512-0.5181 0.734-0.22107 0.1828-0.4817 0.29985-0.75495 0.3392-0.27325 0.039099-0.55936 5.078e-4 -0.83115-0.12771-0.27203-0.12847-0.49553-0.33031-0.66006-0.57634z"/>
                                <path d="m43.495 20.954c-2.2386 0-4.0742-1.9842-4.0742-4.4581s1.8356-4.4581 4.0742-4.4581c2.2384 0 4.074 1.9842 4.074 4.4581s-1.8356 4.4581-4.074 4.4581m-2.4813-14.846c0-1.4383 1.1114-2.6032 2.4813-2.6032 1.3696 0 2.4811 1.1649 2.4811 2.6032 0 1.438-1.1114 2.6029-2.4811 2.6029-1.3699 0-2.4813-1.1649-2.4813-2.6029m6.6465 4.0153c0.92846-1.0564 1.4961-2.4666 1.4961-4.0153 0-3.2747-2.534-5.9304-5.6613-5.9304-3.1275 0-5.6615 2.6557-5.6615 5.9304 0 1.5487 0.56761 2.9589 1.4961 4.0153-1.8695 1.4104-3.0892 3.7421-3.0892 6.3729 0 4.288 3.2363 7.7853 7.2546 7.7853 4.0184 0 7.2544-3.4974 7.2544-7.7853 0-2.6308-1.2194-4.9626-3.0892-6.3729"/>
                                <g transform="translate(0 .057137)" opacity=".56345">
                                    <path d="m6.2825 22.857c-0.27203-0.12796-0.49553-0.3293-0.66006-0.5743-0.16429-0.24501-0.26961-0.53368-0.30504-0.83657-0.035187-0.30289-4.8534e-4 -0.62 0.11478-0.92137l7.3995-19.32c0.11551-0.30137 0.29703-0.54917 0.5181-0.73146 0.22107-0.18229 0.4817-0.29908 0.75495-0.33818 0.27325-0.039099 0.55936-7.6168e-4 0.83115 0.1272 0.27203 0.12796 0.49553 0.3293 0.66006 0.57456 0.16453 0.24475 0.26961 0.53368 0.30504 0.83657 0.035187 0.30289 7.28e-4 0.61975-0.11478 0.92112l-7.3995 19.321c-0.11551 0.30137-0.29703 0.54917-0.5181 0.73146-0.22107 0.18229-0.4817 0.29883-0.75495 0.33793-0.27325 0.039099-0.55936 7.617e-4 -0.83115-0.1272"/>
                                    <path d="m1.8857 14.98c0.97748 0 1.77 0.83048 1.77 1.8552 0 1.0245-0.79256 1.8549-1.77 1.8549-0.97748 0-1.7703-0.83048-1.7703-1.8549 0-1.0247 0.79281-1.8552 1.7703-1.8552"/>
                                    <path d="m1.8857 7.149c0.97748 0 1.77 0.83048 1.77 1.8552 0 1.0245-0.79256 1.8549-1.77 1.8549-0.97748 0-1.7703-0.83048-1.7703-1.8549 0-1.0247 0.79281-1.8552 1.7703-1.8552"/>
                                </g>
                            </g>
                            <path d="m7.1988 28.128c1.9354 0 3.5438-0.60601 4.8254-1.818 1.36-1.2665 2.04-2.8258 2.04-4.6779 0-1.212-0.34327-2.2402-1.0298-3.0845s-1.7556-1.5593-3.2071-2.1449l-2.0596-0.81709c-0.90231-0.36769-1.4319-0.65368-1.5888-0.85795-0.10462-0.1498-0.15692-0.33365-0.15692-0.55154 0-0.81709 0.49692-1.2256 1.4908-1.2256 0.85 0 1.6477 0.55835 2.3931 1.675l4.08-2.0223c-1.5169-2.8871-3.655-4.3306-6.4142-4.3306-1.8177 0-3.3542 0.56516-4.6096 1.6955-1.2554 1.1303-1.8831 2.567-1.8831 4.3102 0 2.3423 1.2162 4.0174 3.6485 5.0251l2.3735 1.0009c0.95462 0.39493 1.5038 0.70134 1.6477 0.91923 0.11769 0.17704 0.17654 0.38131 0.17654 0.61282 0 0.47664-0.15365 0.85454-0.46096 1.1337-0.30731 0.27917-0.70942 0.41876-1.2063 0.41876-0.60154 0-1.1213-0.19406-1.5594-0.58218-0.43808-0.38812-0.89904-1.0656-1.3829-2.0325l-4.3154 1.675c0.57538 1.5797 1.2488 2.7713 2.0204 3.5748 1.3338 1.4027 3.06 2.104 5.1785 2.104zm14.699 0c0.93422 0 1.9079-0.171 2.9211-0.51299v-4.8142c-0.96053 0.34199-1.6842 0.51299-2.1711 0.51299-0.27632 0-0.4704-0.11509-0.58224-0.34528-0.11184-0.23019-0.16776-0.63466-0.16776-1.2134v-7.2607h2.6842v-4.6366h-2.6842v-5.7218l-5.1711 2.0125v3.7093h-1.8355v4.6366h1.8355v7.3791c0 2.0914 0.46711 3.6567 1.4013 4.6958 0.93422 1.0391 2.1908 1.5587 3.7698 1.5587zm12.72 0c1.4725 0 2.8267-0.49932 4.0626-1.498v0.85019h5.167v-18.38h-5.167v9.2509c0 1.7409-0.18407 2.9487-0.5522 3.6234-0.22351 0.40485-0.58835 0.73211-1.0945 0.98177-0.50618 0.24966-1.0551 0.37449-1.6467 0.37449-1.1833 0-1.9853-0.40485-2.406-1.2146-0.34184-0.66126-0.51275-1.7948-0.51275-3.4008v-9.6153h-5.167v9.9189c0 1.7409 0.19721 3.1815 0.59164 4.3218s1.0255 2.1086 1.8932 2.9048c1.3805 1.255 2.9911 1.8826 4.8317 1.8826zm20.92 0c1.6169 0 3.1681-0.55707 4.6535-1.6712v1.0269h5.1662v-27.484h-5.1662v10.249c-1.4854-1.1276-3.0366-1.6913-4.6535-1.6913-2.3005 0-4.3249 0.8054-6.0732 2.4162-2.0901 1.933-3.1352 4.3827-3.1352 7.3492 0 1.839 0.4338 3.5236 1.3014 5.0539 0.82817 1.4766 1.9652 2.6444 3.4113 3.5035 1.4066 0.83224 2.9052 1.2484 4.4958 1.2484zm0.35722-4.9638c-1.1556 0-2.1599-0.35883-3.0128-1.0765-1.0593-0.89044-1.589-2.1729-1.589-3.8475 0-1.5417 0.41272-2.7444 1.2381-3.6083 0.89422-0.93031 1.9879-1.3955 3.2811-1.3955 1.1969 0 2.2012 0.35219 3.0128 1.0566 1.0455 0.89044 1.5683 2.1729 1.5683 3.8475 0 1.5549-0.41272 2.7776-1.2381 3.6681-0.85295 0.90373-1.9398 1.3556-3.2605 1.3556zm15.222-16.546c0.94056 0 1.7324-0.32173 2.3756-0.96519 0.64317-0.64346 0.96476-1.4248 0.96476-2.344 0-0.83438-0.27663-1.5627-0.8299-2.1849-0.66392-0.74953-1.4938-1.1243-2.4897-1.1243-0.89906 0-1.6736 0.32173-2.3237 0.96519-0.65009 0.64346-0.97513 1.4107-0.97513 2.3016 0 0.93337 0.31813 1.7253 0.95439 2.3759 0.63626 0.65053 1.4108 0.9758 2.3237 0.9758zm2.513 20.683v-18.201h-4.9638v18.201h4.9638zm12.41 0.82731c2.604 0 4.8418-0.85114 6.7134-2.5534 2.1429-1.9474 3.2143-4.4123 3.2143-7.3947 0-2.5466-0.82731-4.7528-2.4819-6.6185-1.9666-2.1925-4.3942-3.2888-7.283-3.2888-2.726 0-5.0181 0.85114-6.8762 2.5534-2.1429 1.961-3.2143 4.3919-3.2143 7.2926 0 2.6147 0.82731 4.8549 2.4819 6.7206 1.953 2.1925 4.4349 3.2888 7.4458 3.2888zm-0.41365-4.9638c-1.1511 0-2.1532-0.36548-3.0064-1.0964-1.0292-0.89044-1.5438-2.1995-1.5438-3.9272 0-1.9935 0.72451-3.4156 2.1735-4.2661 0.71774-0.42528 1.4964-0.63792 2.336-0.63792 1.1917 0 2.2074 0.36548 3.047 1.0964 1.0292 0.87715 1.5438 2.153 1.5438 3.8275 0 1.5284-0.40627 2.7311-1.2188 3.6083-0.88025 0.93031-1.9907 1.3955-3.3314 1.3955z" fill-rule="nonzero"/>
                        </g>
                    </g>
                </g>
            </g>
        </g>
    </g>
</svg>
